<svg width="179" height="32" viewBox="0 0 179 32" fill="none" xmlns="http://www.w3.org/2000/svg">
  <path
    d="M25.1715 9.89737C24.9556 9.56572 24.7232 9.24346 24.4768 8.93291C23.8478 8.13955 23.1261 7.42 22.3281 6.79656C21.3728 6.05007 20.3084 5.44538 19.1666 5.02351C18.8661 4.8864 18.5598 4.76101 18.2477 4.65085C18.2453 4.64968 18.243 4.6485 18.2406 4.6485C15.4671 3.73561 12.5019 3.97467 10.0895 5.57078C7.36996 7.37196 5.96946 10.4903 6.02931 13.8301C7.05204 12.7706 8.34001 11.9205 9.83755 11.3898C14.8138 9.62666 20.2204 12.0609 21.9138 16.8262C22.801 19.3227 22.4924 21.9642 21.2825 24.1668C21.2566 24.2296 21.2308 24.2919 21.2038 24.3543C21.1698 24.4327 21.2613 24.506 21.3294 24.4561C22.5287 23.5858 23.5732 22.4646 24.3782 21.1166C25.5999 19.1126 26.0939 17.0278 26.0212 15.0315C26.4836 16.7387 26.5751 18.543 26.2301 20.2634C26.1984 20.4216 26.4249 20.4877 26.4835 20.3375C27.8754 16.8085 27.1665 12.9429 25.1715 9.89737Z"
    fill="#F43F5E"/>
  <path
    d="M21.0431 31.981C15.9672 28.7759 10.0088 33.1727 3.62678 25.3142C3.60026 25.2816 3.64016 25.2358 3.67595 25.2576C9.70487 28.9056 15.932 27.0214 21.1886 31.7868C21.2966 31.8841 21.1651 32.0584 21.0431 31.981Z"
    fill="#F43F5E"/>
  <path
    d="M27.7345 7.41665C23.6729 1.93342 15.0864 0.861145 9.78719 5.1725L9.78684 5.17366C9.78637 5.17366 9.78602 5.17367 9.78567 5.17485C8.75307 5.87563 7.89205 6.78735 7.20002 7.8315C7.13054 7.9358 7.06294 8.04244 6.99734 8.14908C6.99077 8.15845 6.98455 8.16783 6.97857 8.17837C5.82933 10.0592 5.19984 12.3219 5.08038 14.5459C5.04599 15.4912 5.10654 16.4423 5.25968 17.3805C5.27165 17.4562 5.28492 17.5326 5.29829 17.6083C5.46728 18.5555 5.73134 19.487 6.08668 20.3797C7.14662 23.0443 9.02299 25.3676 11.6452 26.7661C12.204 27.0881 12.7769 27.3645 13.3592 27.5974C13.4431 27.6306 13.4205 27.7483 13.3421 27.7581C13.3233 27.7569 13.304 27.755 13.2849 27.753C12.6809 27.6949 12.0694 27.5997 11.4547 27.4668C10.5627 27.2737 9.6642 27.0004 8.77255 26.6432C4.54302 24.9488 1.50684 21.7811 0.429775 18.4155C0.0798265 17.3223 -0.0634639 16.2082 0.0259594 15.1172C-0.0243852 11.6211 1.16816 8.54634 3.10978 6.09828C6.49519 1.82795 12.1568 -0.534563 17.4694 0.102941C18.155 0.184973 18.8344 0.317397 19.5022 0.501383C22.7975 1.41076 25.8134 3.5928 27.8754 7.32641C27.9258 7.41782 27.7967 7.49985 27.7345 7.41665Z"
    fill="#F43F5E"/>
  <path
    d="M22.0946 19.371C22.0946 19.7547 22.0664 20.1471 22.0077 20.5468C21.9878 20.6793 21.9655 20.8127 21.9385 20.9469C21.9303 20.9917 21.9209 21.0365 21.9115 21.0817C21.8916 21.1714 21.8716 21.2615 21.8493 21.352C21.8376 21.3972 21.8258 21.4428 21.8141 21.488C21.8247 20.8182 21.7507 20.1486 21.6029 19.4938C21.6017 19.4895 21.6005 19.4848 21.5993 19.4806C21.5465 19.2333 21.4855 18.9908 21.4139 18.7533C20.8671 16.9154 19.7839 15.3806 18.3815 14.2922C16.8355 13.093 14.9006 12.4356 12.8621 12.512C12.5528 12.5417 12.2396 12.5928 11.9245 12.6672C11.9554 12.6656 11.9862 12.6641 12.0171 12.663C12.7251 12.631 13.4361 12.6906 14.1238 12.8442C14.9469 13.0272 15.7374 13.3442 16.4501 13.7989C17.0535 14.1837 17.6013 14.6669 18.067 15.2515C18.1304 15.331 18.0236 15.434 17.9461 15.3665C17.0187 14.5526 15.8639 13.9997 14.6464 13.7387C12.9717 13.3804 11.1786 13.5747 9.6923 14.4025C9.57788 14.4634 9.46511 14.5273 9.35457 14.5944C8.44425 15.1442 7.66596 15.8972 7.09621 16.8074C6.94588 17.043 6.81152 17.2902 6.69358 17.5464C6.50886 17.0095 6.36323 16.4678 6.25585 15.9257V15.9254C6.23637 15.8262 6.21759 15.7272 6.20081 15.6282C6.2109 15.6146 6.2211 15.6009 6.23131 15.5876V15.5873C6.23167 15.5869 6.23167 15.5869 6.23202 15.5864L6.23249 15.5861C7.35428 13.2076 10.2379 11.5149 13.6185 11.5149C14.0407 11.5149 14.4546 11.5415 14.8584 11.5921L14.8667 11.5933C14.8682 11.5933 14.8697 11.5936 14.8712 11.5936C14.9001 11.5964 14.9291 11.5995 14.958 11.603C14.9868 11.6062 15.0153 11.6093 15.0443 11.6132C15.0732 11.6167 15.1021 11.6201 15.1306 11.6241C15.2457 11.6392 15.3602 11.6572 15.4743 11.6779C15.5117 11.6845 15.5495 11.6915 15.5871 11.699C15.6913 11.7189 15.7953 11.7415 15.8987 11.766C15.9257 11.7722 15.953 11.7789 15.9799 11.7856C16.0889 11.8121 16.1971 11.8413 16.3045 11.8729C16.3337 11.8814 16.3627 11.8901 16.3915 11.8985C16.3946 11.8994 16.3974 11.9005 16.4001 11.9013C16.4255 11.9091 16.4509 11.9169 16.4759 11.9248C16.4798 11.9258 16.484 11.9275 16.4879 11.9287C16.5107 11.9357 16.5337 11.9431 16.5563 11.9509C16.6297 11.9746 16.7031 11.9997 16.7758 12.0262C16.7922 12.0315 16.8086 12.0374 16.8246 12.0437C16.9012 12.0717 16.9773 12.1006 17.0527 12.131C17.1319 12.163 17.2108 12.1957 17.2889 12.2301C17.3315 12.2485 17.3737 12.2674 17.4159 12.2865C17.4534 12.3038 17.4908 12.3213 17.528 12.3389C17.5334 12.3416 17.5391 12.344 17.5447 12.3467C18.7042 12.9008 19.7323 13.724 20.5173 14.7473C20.5326 14.7684 20.549 14.7893 20.5655 14.8104C20.5936 14.8495 20.623 14.8888 20.6523 14.9286C20.711 15.0101 20.7685 15.0932 20.8236 15.177C20.8518 15.2187 20.88 15.2612 20.907 15.3037C20.934 15.3462 20.9609 15.3891 20.9868 15.432C20.9997 15.4534 21.0126 15.4753 21.0255 15.4967C21.0771 15.5837 21.1276 15.6714 21.1757 15.7604C21.2003 15.8048 21.2238 15.8497 21.2473 15.8945C21.2708 15.9398 21.2942 15.985 21.3165 16.0306C21.3318 16.0622 21.347 16.0938 21.3623 16.1254C21.4703 16.3507 21.5665 16.5821 21.6522 16.8195C21.6674 16.8632 21.6827 16.9068 21.6979 16.9505C21.7202 17.016 21.7413 17.0815 21.7613 17.1479C21.7707 17.1783 21.7801 17.2087 21.7883 17.2392C21.793 17.2519 21.7965 17.2648 21.8 17.2777C21.8118 17.3167 21.8223 17.3565 21.8329 17.3959C21.861 17.4961 21.8857 17.5975 21.9092 17.6996C21.9162 17.7328 21.9232 17.7664 21.9315 17.7999C21.9444 17.8619 21.9561 17.9239 21.9678 17.9867C21.9714 18.0035 21.9737 18.0206 21.9772 18.0378C21.9925 18.1227 22.0066 18.2085 22.0183 18.2951C22.0206 18.3122 22.023 18.3295 22.0253 18.3469C22.03 18.3801 22.0347 18.4129 22.0382 18.446C22.0429 18.4799 22.0465 18.5135 22.05 18.5474C22.0582 18.6227 22.0652 18.6987 22.0711 18.7748C22.0734 18.8009 22.0758 18.8274 22.077 18.8539C22.0793 18.8901 22.0817 18.9272 22.084 18.9639C22.0852 18.9912 22.0864 19.0181 22.0875 19.0454C22.0887 19.0727 22.0899 19.1 22.0911 19.1273C22.0911 19.1484 22.0922 19.1694 22.0922 19.1908C22.0934 19.2171 22.0934 19.2427 22.0934 19.2689C22.0946 19.3027 22.0946 19.3371 22.0946 19.371Z"
    fill="#F43F5E"/>
  <path
    d="M36.9395 23.6502C36.6458 23.6502 36.3988 23.5502 36.1985 23.3502C35.9982 23.1502 35.8981 22.9035 35.8981 22.6102V9.07015C35.8981 8.76348 35.9982 8.51682 36.1985 8.33015C36.3988 8.13015 36.6458 8.03015 36.9395 8.03015C37.2466 8.03015 37.4937 8.13015 37.6806 8.33015C37.8809 8.51682 37.981 8.76348 37.981 9.07015V14.8102H47.2741V9.07015C47.2741 8.76348 47.3742 8.51682 47.5745 8.33015C47.7748 8.13015 48.0218 8.03015 48.3156 8.03015C48.6227 8.03015 48.8697 8.13015 49.0566 8.33015C49.2435 8.51682 49.337 8.76348 49.337 9.07015V22.6102C49.337 22.9035 49.2435 23.1502 49.0566 23.3502C48.8697 23.5502 48.6227 23.6502 48.3156 23.6502C48.0218 23.6502 47.7748 23.5502 47.5745 23.3502C47.3742 23.1502 47.2741 22.9035 47.2741 22.6102V16.6502H37.981V22.6102C37.981 22.9035 37.8809 23.1502 37.6806 23.3502C37.4937 23.5502 37.2466 23.6502 36.9395 23.6502Z"
    fill="#18181B"/>
  <path
    d="M54.386 23.6502C54.0922 23.6502 53.8452 23.5502 53.6449 23.3502C53.4447 23.1502 53.3445 22.9035 53.3445 22.6102V9.07015C53.3445 8.76348 53.4447 8.51682 53.6449 8.33015C53.8452 8.13015 54.0922 8.03015 54.386 8.03015H63.4387C63.7458 8.03015 63.9929 8.12348 64.1798 8.31015C64.3667 8.48348 64.4602 8.71682 64.4602 9.01015C64.4602 9.29015 64.3667 9.51682 64.1798 9.69015C63.9929 9.86348 63.7458 9.95015 63.4387 9.95015H55.4275V14.8102H61.1756C61.4827 14.8102 61.7297 14.9035 61.9166 15.0902C62.1035 15.2635 62.197 15.4902 62.197 15.7702C62.197 16.0502 62.1035 16.2835 61.9166 16.4702C61.7297 16.6435 61.4827 16.7302 61.1756 16.7302H55.4275V21.7302H63.4387C63.7458 21.7302 63.9929 21.8168 64.1798 21.9902C64.3667 22.1635 64.4602 22.3902 64.4602 22.6702C64.4602 22.9635 64.3667 23.2035 64.1798 23.3902C63.9929 23.5635 63.7458 23.6502 63.4387 23.6502H54.386Z"
    fill="#18181B"/>
  <path
    d="M66.7473 23.6502C66.3734 23.6502 66.0864 23.4902 65.8861 23.1702C65.6858 22.8502 65.6658 22.5102 65.826 22.1502L71.4539 8.73015C71.6542 8.26348 71.9813 8.03015 72.4353 8.03015C72.916 8.03015 73.2431 8.26348 73.4167 8.73015L79.0647 22.1902C79.2115 22.5635 79.1848 22.9035 78.9845 23.2102C78.7976 23.5035 78.5105 23.6502 78.1233 23.6502C77.9231 23.6502 77.7294 23.5968 77.5425 23.4902C77.3689 23.3702 77.2421 23.2102 77.162 23.0102L72.195 10.6902H72.7558L67.7087 23.0102C67.6152 23.2235 67.475 23.3835 67.2881 23.4902C67.1145 23.5968 66.9342 23.6502 66.7473 23.6502ZM67.8088 20.2102L68.6099 18.4902H76.461L77.2621 20.2102H67.8088Z"
    fill="#18181B"/>
  <path
    d="M82.492 23.6502C82.1982 23.6502 81.9512 23.5502 81.7509 23.3502C81.5507 23.1502 81.4505 22.9035 81.4505 22.6102V9.07015C81.4505 8.76348 81.5507 8.51682 81.7509 8.33015C81.9512 8.13015 82.1982 8.03015 82.492 8.03015H86.1171C87.2654 8.03015 88.3068 8.22348 89.2415 8.61015C90.1895 8.98348 91.0107 9.52348 91.705 10.2302C92.3993 10.9235 92.9334 11.7435 93.3072 12.6902C93.6811 13.6368 93.868 14.6835 93.868 15.8302C93.868 16.9768 93.6811 18.0302 93.3072 18.9902C92.9334 19.9368 92.3993 20.7635 91.705 21.4702C91.0107 22.1635 90.1895 22.7035 89.2415 23.0902C88.3068 23.4635 87.2654 23.6502 86.1171 23.6502H82.492ZM83.5335 21.8102H86.1171C87.2387 21.8102 88.2267 21.5568 89.0813 21.0502C89.9492 20.5302 90.6301 19.8235 91.1241 18.9302C91.6182 18.0235 91.8652 16.9902 91.8652 15.8302C91.8652 14.6568 91.6182 13.6235 91.1241 12.7302C90.6301 11.8368 89.9492 11.1368 89.0813 10.6302C88.2267 10.1235 87.2387 9.87015 86.1171 9.87015H83.5335V21.8102Z"
    fill="#18181B"/>
  <path
    d="M100.266 23.6502C100.025 23.6502 99.8118 23.5768 99.6249 23.4302C99.4379 23.2835 99.3044 23.0835 99.2243 22.8302L95.1986 9.47015C95.0651 9.03015 95.0718 8.68348 95.2187 8.43015C95.3789 8.16348 95.6326 8.03015 95.9797 8.03015C96.2067 8.03015 96.4137 8.09682 96.6006 8.23015C96.7875 8.35015 96.9211 8.54348 97.0012 8.81015L100.506 21.0102H100.065L103.31 8.93015C103.363 8.73015 103.484 8.56348 103.671 8.43015C103.857 8.29682 104.071 8.23015 104.311 8.23015C104.525 8.23015 104.725 8.29015 104.912 8.41015C105.113 8.51682 105.239 8.68348 105.293 8.91015L108.557 21.0102H108.157L111.682 8.71015C111.815 8.25682 112.156 8.03015 112.703 8.03015C113.077 8.03015 113.317 8.17682 113.424 8.47015C113.531 8.75015 113.531 9.08348 113.424 9.47015L109.399 22.8102C109.305 23.0635 109.165 23.2702 108.978 23.4302C108.804 23.5768 108.598 23.6502 108.357 23.6502C108.103 23.6502 107.883 23.5702 107.696 23.4102C107.523 23.2502 107.396 23.0568 107.316 22.8302L104.091 10.3902H104.572L101.307 22.8102C101.214 23.0635 101.074 23.2702 100.887 23.4302C100.713 23.5768 100.506 23.6502 100.266 23.6502Z"
    fill="#18181B"/>
  <path
    d="M116.779 23.6502C116.485 23.6502 116.238 23.5502 116.038 23.3502C115.837 23.1502 115.737 22.9035 115.737 22.6102V9.07015C115.737 8.76348 115.837 8.51682 116.038 8.33015C116.238 8.13015 116.485 8.03015 116.779 8.03015C117.086 8.03015 117.333 8.13015 117.52 8.33015C117.72 8.51682 117.82 8.76348 117.82 9.07015V22.6102C117.82 22.9035 117.72 23.1502 117.52 23.3502C117.333 23.5502 117.086 23.6502 116.779 23.6502Z"
    fill="#18181B"/>
  <path
    d="M122.841 23.6502C122.548 23.6502 122.301 23.5502 122.1 23.3502C121.913 23.1502 121.82 22.9035 121.82 22.6102V9.07015C121.82 8.76348 121.913 8.51682 122.1 8.33015C122.301 8.13015 122.548 8.03015 122.841 8.03015C123.162 8.03015 123.429 8.15682 123.642 8.41015L132.375 20.0102V9.07015C132.375 8.76348 132.475 8.51682 132.675 8.33015C132.875 8.13015 133.122 8.03015 133.416 8.03015C133.723 8.03015 133.97 8.13015 134.157 8.33015C134.344 8.51682 134.438 8.76348 134.438 9.07015V22.6102C134.438 22.9035 134.344 23.1502 134.157 23.3502C133.97 23.5502 133.723 23.6502 133.416 23.6502C133.283 23.6502 133.136 23.6235 132.976 23.5702C132.829 23.5035 132.709 23.4102 132.615 23.2902L123.883 11.6902V22.6102C123.883 22.9035 123.783 23.1502 123.582 23.3502C123.395 23.5502 123.148 23.6502 122.841 23.6502Z"
    fill="#18181B"/>
  <path
    d="M139.486 23.6502C139.193 23.6502 138.946 23.5502 138.745 23.3502C138.545 23.1502 138.445 22.9035 138.445 22.6102V9.07015C138.445 8.76348 138.545 8.51682 138.745 8.33015C138.946 8.13015 139.193 8.03015 139.486 8.03015H143.111C144.26 8.03015 145.301 8.22348 146.236 8.61015C147.184 8.98348 148.005 9.52348 148.699 10.2302C149.394 10.9235 149.928 11.7435 150.302 12.6902C150.675 13.6368 150.862 14.6835 150.862 15.8302C150.862 16.9768 150.675 18.0302 150.302 18.9902C149.928 19.9368 149.394 20.7635 148.699 21.4702C148.005 22.1635 147.184 22.7035 146.236 23.0902C145.301 23.4635 144.26 23.6502 143.111 23.6502H139.486ZM140.528 21.8102H143.111C144.233 21.8102 145.221 21.5568 146.076 21.0502C146.944 20.5302 147.624 19.8235 148.118 18.9302C148.613 18.0235 148.86 16.9902 148.86 15.8302C148.86 14.6568 148.613 13.6235 148.118 12.7302C147.624 11.8368 146.944 11.1368 146.076 10.6302C145.221 10.1235 144.233 9.87015 143.111 9.87015H140.528V21.8102Z"
    fill="#18181B"/>
  <path
    d="M166.548 23.9702C165.266 23.9702 164.131 23.7368 163.143 23.2702C162.155 22.7902 161.381 22.1302 160.82 21.2902C160.272 20.4502 159.999 19.4902 159.999 18.4102V9.07015C159.999 8.76348 160.099 8.51682 160.299 8.33015C160.499 8.13015 160.746 8.03015 161.04 8.03015C161.347 8.03015 161.594 8.13015 161.781 8.33015C161.981 8.51682 162.082 8.76348 162.082 9.07015V18.4102C162.082 19.1302 162.269 19.7702 162.642 20.3302C163.03 20.8768 163.557 21.3102 164.225 21.6302C164.906 21.9368 165.68 22.0902 166.548 22.0902C167.389 22.0902 168.13 21.9368 168.771 21.6302C169.425 21.3102 169.933 20.8768 170.293 20.3302C170.667 19.7702 170.854 19.1302 170.854 18.4102V9.07015C170.854 8.76348 170.954 8.51682 171.154 8.33015C171.355 8.13015 171.602 8.03015 171.895 8.03015C172.203 8.03015 172.45 8.13015 172.636 8.33015C172.823 8.51682 172.917 8.76348 172.917 9.07015V18.4102C172.917 19.4902 172.643 20.4502 172.096 21.2902C171.562 22.1302 170.814 22.7902 169.853 23.2702C168.891 23.7368 167.79 23.9702 166.548 23.9702Z"
    fill="#18181B"/>
  <path
    d="M177.958 23.6502C177.665 23.6502 177.418 23.5502 177.217 23.3502C177.017 23.1502 176.917 22.9035 176.917 22.6102V9.07015C176.917 8.76348 177.017 8.51682 177.217 8.33015C177.418 8.13015 177.665 8.03015 177.958 8.03015C178.266 8.03015 178.513 8.13015 178.7 8.33015C178.9 8.51682 179 8.76348 179 9.07015V22.6102C179 22.9035 178.9 23.1502 178.7 23.3502C178.513 23.5502 178.266 23.6502 177.958 23.6502Z"
    fill="#18181B"/>
</svg>
