<svg width="28" height="32" viewBox="0 0 28 32" fill="none" xmlns="http://www.w3.org/2000/svg">
  <path
    d="M25.1715 9.89737C24.9556 9.56572 24.7232 9.24346 24.4768 8.93291C23.8478 8.13955 23.1261 7.42 22.3281 6.79656C21.3728 6.05007 20.3084 5.44538 19.1666 5.02351C18.8661 4.8864 18.5598 4.76101 18.2477 4.65085C18.2453 4.64968 18.243 4.6485 18.2406 4.6485C15.4671 3.73561 12.5019 3.97467 10.0895 5.57078C7.36996 7.37196 5.96946 10.4903 6.02931 13.8301C7.05204 12.7706 8.34001 11.9205 9.83755 11.3898C14.8138 9.62666 20.2204 12.0609 21.9138 16.8262C22.801 19.3227 22.4924 21.9642 21.2825 24.1668C21.2566 24.2296 21.2308 24.2919 21.2038 24.3543C21.1698 24.4327 21.2613 24.506 21.3294 24.4561C22.5287 23.5858 23.5732 22.4646 24.3782 21.1166C25.5999 19.1126 26.0939 17.0278 26.0212 15.0315C26.4836 16.7387 26.5751 18.543 26.2301 20.2634C26.1984 20.4216 26.4249 20.4877 26.4835 20.3375C27.8754 16.8085 27.1665 12.9429 25.1715 9.89737Z"
    fill="#F43F5E"/>
  <path
    d="M21.0431 31.981C15.9672 28.7759 10.0088 33.1727 3.62678 25.3142C3.60026 25.2816 3.64016 25.2358 3.67595 25.2576C9.70487 28.9056 15.932 27.0214 21.1886 31.7868C21.2966 31.8841 21.1651 32.0584 21.0431 31.981Z"
    fill="#F43F5E"/>
  <path
    d="M27.7345 7.41665C23.6729 1.93342 15.0864 0.861145 9.78719 5.1725L9.78684 5.17366C9.78637 5.17366 9.78602 5.17367 9.78567 5.17485C8.75307 5.87563 7.89205 6.78735 7.20002 7.8315C7.13054 7.9358 7.06294 8.04244 6.99734 8.14908C6.99077 8.15845 6.98455 8.16783 6.97857 8.17837C5.82933 10.0592 5.19984 12.3219 5.08038 14.5459C5.04599 15.4912 5.10654 16.4423 5.25968 17.3805C5.27165 17.4562 5.28492 17.5326 5.29829 17.6083C5.46728 18.5555 5.73134 19.487 6.08668 20.3797C7.14662 23.0443 9.02299 25.3676 11.6452 26.7661C12.204 27.0881 12.7769 27.3645 13.3592 27.5974C13.4431 27.6306 13.4205 27.7483 13.3421 27.7581C13.3233 27.7569 13.304 27.755 13.2849 27.753C12.6809 27.6949 12.0694 27.5997 11.4547 27.4668C10.5627 27.2737 9.6642 27.0004 8.77255 26.6432C4.54302 24.9488 1.50684 21.7811 0.429775 18.4155C0.0798265 17.3223 -0.0634639 16.2082 0.0259594 15.1172C-0.0243852 11.6211 1.16816 8.54634 3.10978 6.09828C6.49519 1.82795 12.1568 -0.534563 17.4694 0.102941C18.155 0.184973 18.8344 0.317397 19.5022 0.501383C22.7975 1.41076 25.8134 3.5928 27.8754 7.32641C27.9258 7.41782 27.7967 7.49985 27.7345 7.41665Z"
    fill="#F43F5E"/>
  <path
    d="M22.0946 19.371C22.0946 19.7547 22.0664 20.1471 22.0077 20.5468C21.9878 20.6793 21.9655 20.8127 21.9385 20.9469C21.9303 20.9917 21.9209 21.0365 21.9115 21.0817C21.8916 21.1714 21.8716 21.2615 21.8493 21.352C21.8376 21.3972 21.8258 21.4428 21.8141 21.488C21.8247 20.8182 21.7507 20.1486 21.6029 19.4938C21.6017 19.4895 21.6005 19.4848 21.5993 19.4806C21.5465 19.2333 21.4855 18.9908 21.4139 18.7533C20.8671 16.9154 19.7839 15.3806 18.3815 14.2922C16.8355 13.093 14.9006 12.4356 12.8621 12.512C12.5528 12.5417 12.2396 12.5928 11.9245 12.6672C11.9554 12.6656 11.9862 12.6641 12.0171 12.663C12.7251 12.631 13.4361 12.6906 14.1238 12.8442C14.9469 13.0272 15.7374 13.3442 16.4501 13.7989C17.0535 14.1837 17.6013 14.6669 18.067 15.2515C18.1304 15.331 18.0236 15.434 17.9461 15.3665C17.0187 14.5526 15.8639 13.9997 14.6464 13.7387C12.9717 13.3804 11.1786 13.5747 9.6923 14.4025C9.57788 14.4634 9.46511 14.5273 9.35457 14.5944C8.44425 15.1442 7.66596 15.8972 7.09621 16.8074C6.94588 17.043 6.81152 17.2902 6.69358 17.5464C6.50886 17.0095 6.36323 16.4678 6.25585 15.9257V15.9254C6.23637 15.8262 6.21759 15.7272 6.20081 15.6282C6.2109 15.6146 6.2211 15.6009 6.23131 15.5876V15.5873C6.23167 15.5869 6.23167 15.5869 6.23202 15.5864L6.23249 15.5861C7.35428 13.2076 10.2379 11.5149 13.6185 11.5149C14.0407 11.5149 14.4546 11.5415 14.8584 11.5921L14.8667 11.5933C14.8682 11.5933 14.8697 11.5936 14.8712 11.5936C14.9001 11.5964 14.9291 11.5995 14.958 11.603C14.9868 11.6062 15.0153 11.6093 15.0443 11.6132C15.0732 11.6167 15.1021 11.6201 15.1306 11.6241C15.2457 11.6392 15.3602 11.6572 15.4743 11.6779C15.5117 11.6845 15.5495 11.6915 15.5871 11.699C15.6913 11.7189 15.7953 11.7415 15.8987 11.766C15.9257 11.7722 15.953 11.7789 15.9799 11.7856C16.0889 11.8121 16.1971 11.8413 16.3045 11.8729C16.3337 11.8814 16.3627 11.8901 16.3915 11.8985C16.3946 11.8994 16.3974 11.9005 16.4001 11.9013C16.4255 11.9091 16.4509 11.9169 16.4759 11.9248C16.4798 11.9258 16.484 11.9275 16.4879 11.9287C16.5107 11.9357 16.5337 11.9431 16.5563 11.9509C16.6297 11.9746 16.7031 11.9997 16.7758 12.0262C16.7922 12.0315 16.8086 12.0374 16.8246 12.0437C16.9012 12.0717 16.9773 12.1006 17.0527 12.131C17.1319 12.163 17.2108 12.1957 17.2889 12.2301C17.3315 12.2485 17.3737 12.2674 17.4159 12.2865C17.4534 12.3038 17.4908 12.3213 17.528 12.3389C17.5334 12.3416 17.5391 12.344 17.5447 12.3467C18.7042 12.9008 19.7323 13.724 20.5173 14.7473C20.5326 14.7684 20.549 14.7893 20.5655 14.8104C20.5936 14.8495 20.623 14.8888 20.6523 14.9286C20.711 15.0101 20.7685 15.0932 20.8236 15.177C20.8518 15.2187 20.88 15.2612 20.907 15.3037C20.934 15.3462 20.9609 15.3891 20.9868 15.432C20.9997 15.4534 21.0126 15.4753 21.0255 15.4967C21.0771 15.5837 21.1276 15.6714 21.1757 15.7604C21.2003 15.8048 21.2238 15.8497 21.2473 15.8945C21.2708 15.9398 21.2942 15.985 21.3165 16.0306C21.3318 16.0622 21.347 16.0938 21.3623 16.1254C21.4703 16.3507 21.5665 16.5821 21.6522 16.8195C21.6674 16.8632 21.6827 16.9068 21.6979 16.9505C21.7202 17.016 21.7413 17.0815 21.7613 17.1479C21.7707 17.1783 21.7801 17.2087 21.7883 17.2392C21.793 17.2519 21.7965 17.2648 21.8 17.2777C21.8118 17.3167 21.8223 17.3565 21.8329 17.3959C21.861 17.4961 21.8857 17.5975 21.9092 17.6996C21.9162 17.7328 21.9232 17.7664 21.9315 17.7999C21.9444 17.8619 21.9561 17.9239 21.9678 17.9867C21.9714 18.0035 21.9737 18.0206 21.9772 18.0378C21.9925 18.1227 22.0066 18.2085 22.0183 18.2951C22.0206 18.3122 22.023 18.3295 22.0253 18.3469C22.03 18.3801 22.0347 18.4129 22.0382 18.446C22.0429 18.4799 22.0465 18.5135 22.05 18.5474C22.0582 18.6227 22.0652 18.6987 22.0711 18.7748C22.0734 18.8009 22.0758 18.8274 22.077 18.8539C22.0793 18.8901 22.0817 18.9272 22.084 18.9639C22.0852 18.9912 22.0864 19.0181 22.0875 19.0454C22.0887 19.0727 22.0899 19.1 22.0911 19.1273C22.0911 19.1484 22.0922 19.1694 22.0922 19.1908C22.0934 19.2171 22.0934 19.2427 22.0934 19.2689C22.0946 19.3027 22.0946 19.3371 22.0946 19.371Z"
    fill="#F43F5E"/>
</svg>
